<?xml version="1.0" encoding="UTF-8"?>
<svg version="1.1" xmlns="http://www.w3.org/2000/svg" width="224" height="224">
<path d="M0 0 C0.71748167 -0.00453111 1.43496334 -0.00906223 2.17418689 -0.01373065 C4.56684912 -0.02634239 6.95928279 -0.02475639 9.35197449 -0.02310181 C11.0722279 -0.02908909 12.79247862 -0.0358951 14.51272583 -0.04345703 C19.1781297 -0.06110418 23.84346018 -0.06581188 28.50889421 -0.0670886 C31.42601866 -0.06851152 34.34312453 -0.07278379 37.26024437 -0.07808304 C47.44382789 -0.09657927 57.6273591 -0.10475418 67.81095886 -0.10317993 C77.29267756 -0.10197874 86.77416855 -0.12307783 96.25582963 -0.15466726 C104.4055039 -0.18084816 112.55510388 -0.19154646 120.70481986 -0.19026911 C125.56820573 -0.18976 130.43138919 -0.19541506 135.29473305 -0.21662521 C139.87079275 -0.23603808 144.4464576 -0.23611128 149.02253151 -0.22159195 C150.69743428 -0.21950651 152.37236195 -0.22418891 154.04722214 -0.23631287 C166.11091254 -0.31795021 174.76624814 0.92244256 183.86833191 9.40805054 C190.28140208 16.07316277 192.90023835 22.2175175 192.92481995 31.61003113 C192.92935106 32.3275128 192.93388217 33.04499447 192.93855059 33.78421801 C192.95116233 36.17688025 192.94957633 38.56931392 192.94792175 40.96200562 C192.95390904 42.68225902 192.96071504 44.40250975 192.96827698 46.12275696 C192.98592413 50.78816083 192.99063183 55.45349131 192.99190855 60.11892533 C192.99333147 63.03604979 192.99760374 65.95315566 193.00290298 68.8702755 C193.02139921 79.05385902 193.02957413 89.23739023 193.02799988 99.42098999 C193.02679868 108.90270869 193.04789778 118.38419967 193.0794872 127.86586076 C193.1056681 136.01553503 193.11636641 144.165135 193.11508906 152.31485099 C193.11457995 157.17823686 193.12023501 162.04142032 193.14144516 166.90476418 C193.16085803 171.48082388 193.16093123 176.05648873 193.1464119 180.63256264 C193.14432646 182.3074654 193.14900886 183.98239308 193.16113281 185.65725327 C193.24277016 197.72094367 192.00237739 206.37627926 183.51676941 215.47836304 C176.85165718 221.89143321 170.70730244 224.51026948 161.31478882 224.53485107 C160.23856631 224.54164774 160.23856631 224.54164774 159.14060193 224.54858172 C156.7479397 224.56119346 154.35550603 224.55960746 151.96281433 224.55795288 C150.24256092 224.56394016 148.5223102 224.57074617 146.80206299 224.57830811 C142.13665911 224.59595526 137.47132864 224.60066295 132.80589461 224.60193968 C129.88877016 224.60336259 126.97166428 224.60763487 124.05454445 224.61293411 C113.87096093 224.63143034 103.68742972 224.63960526 93.50382996 224.63803101 C84.02211126 224.63682981 74.54062027 224.65792891 65.05895919 224.68951833 C56.90928492 224.71569923 48.75968494 224.72639754 40.60996896 224.72512019 C35.74658309 224.72461108 30.88339963 224.73026613 26.02005577 224.75147629 C21.44399607 224.77088916 16.86833122 224.77096236 12.29225731 224.75644302 C10.61735454 224.75435759 8.94242686 224.75903999 7.26756668 224.77116394 C-4.79612372 224.85280128 -13.45145932 223.61240852 -22.55354309 215.12680054 C-28.96661326 208.46168831 -31.58544953 202.31733357 -31.61003113 192.92481995 C-31.61456224 192.20733827 -31.61909335 191.4898566 -31.62376177 190.75063306 C-31.63637351 188.35797082 -31.63478751 185.96553716 -31.63313293 183.57284546 C-31.63912022 181.85259205 -31.64592622 180.13234132 -31.65348816 178.41209412 C-31.67113531 173.74669024 -31.67584301 169.08135977 -31.67711973 164.41592574 C-31.67854265 161.49880129 -31.68281492 158.58169541 -31.68811417 155.66457558 C-31.70661039 145.48099206 -31.71478531 135.29746085 -31.71321106 125.11386108 C-31.71200986 115.63214239 -31.73310896 106.1506514 -31.76469839 96.66899031 C-31.79087928 88.51931605 -31.80157759 80.36971607 -31.80030024 72.22000009 C-31.79979113 67.35661422 -31.80544619 62.49343075 -31.82665634 57.6300869 C-31.84606921 53.05402719 -31.84614241 48.47836235 -31.83162308 43.90228844 C-31.82953764 42.22738567 -31.83422004 40.55245799 -31.84634399 38.87759781 C-31.92798134 26.81390741 -30.68758857 18.15857181 -22.20198059 9.05648804 C-15.53686836 2.64341786 -9.39251363 0.0245816 0 0 Z " fill="#1B1B1F" transform="translate(31.342605590820313,-0.267425537109375)"/>
<path d="M0 0 C1.67769766 1.31942644 3.34575747 2.65128313 5 4 C5.62003906 4.44601563 6.24007812 4.89203125 6.87890625 5.3515625 C16.56949927 12.68133819 23.19136328 24.71343019 27 36 C27.31710938 36.86753906 27.63421875 37.73507813 27.9609375 38.62890625 C31.57560966 49.75480083 31.55885029 63.15546218 27 74 C21.94322481 83.91905903 13.79310759 91.24516098 3.37109375 95.1484375 C-6.35952791 97.60646244 -16.14411756 97.06349644 -25.24609375 92.6796875 C-32.86398379 88.03331485 -39.05251076 82.03939881 -43 74 C-43.31710938 73.36449219 -43.63421875 72.72898437 -43.9609375 72.07421875 C-46.20256237 66.94316 -46.96209075 61.54617021 -46 56 C-44.4765625 53.703125 -44.4765625 53.703125 -43 52 C-36.25 52.75 -36.25 52.75 -34 55 C-33.76171875 56.8125 -33.76171875 56.8125 -33.6875 59 C-33.00345871 66.19982447 -29.99982816 72.54689059 -24.625 77.4375 C-17.54258898 82.79101411 -10.73996344 84.1690397 -2 83 C6.5112565 80.31411962 11.27008275 75.3678676 15.875 68 C20.19411468 56.4392559 16.44898227 42.57276541 11.5625 31.84375 C3.94869907 17.64108288 -7.8015477 7.96425812 -23.0625 3.125 C-38.98342476 -1.4655009 -54.49836547 0.20815557 -69.1875 8.0625 C-82.56453745 16.42091593 -91.90276526 28.7456799 -96 44 C-99.74887822 68.34271592 -94.26312004 91.03144837 -80.12109375 111.23828125 C-76.21162351 116.3285123 -72.00413901 121.25239421 -67.26171875 125.58984375 C-66 127 -66 127 -65.625 130 C-66 133 -66 133 -67.0625 134.9375 C-69.47366557 136.25975209 -71.30142586 136.41884993 -73.9921875 135.8671875 C-87.71162869 129.9416701 -97.80190773 109.04548207 -103.21142578 95.99414062 C-111.42101403 75.23379487 -113.74871629 51.87127264 -105 31 C-104.5771875 29.93652344 -104.154375 28.87304688 -103.71875 27.77734375 C-100.00266428 19.40534832 -94.43536987 13.35227327 -88 7 C-87.31808594 6.319375 -86.63617188 5.63875 -85.93359375 4.9375 C-76.73403025 -3.66668466 -66.15181243 -8.17823082 -54 -11 C-53.20722656 -11.19464844 -52.41445312 -11.38929687 -51.59765625 -11.58984375 C-33.73344656 -14.41050844 -14.73096882 -10.56259028 0 0 Z " fill="#EF6363" transform="translate(136,54)"/>
<path d="M0 0 C17.66386913 10.69128921 28.09148883 34.92280323 33 54 C33.24492187 54.89332031 33.48984375 55.78664062 33.7421875 56.70703125 C38.3819795 76.88694851 34.85896709 98.48814618 24 116 C13.40605503 131.42128897 -3.08704186 142.42768821 -21.4375 146.4375 C-41.53168998 149.11471992 -60.81768423 145.70157242 -77.4453125 133.55859375 C-91.34313948 122.79602062 -102.43823284 105.60809844 -104.78125 87.90234375 C-105.84065803 73.84626937 -105.30787311 62.93863604 -95.8125 51.625 C-89.37192813 44.94827382 -81.37291566 39.62992876 -71.95703125 38.69921875 C-59.11466045 38.65135898 -49.43202805 41.22650608 -39.83984375 49.96875 C-33.25525504 56.76256863 -28.87483372 64.92098078 -28.4375 74.5 C-28.62609237 77.66529357 -28.9464287 78.91140132 -30.625 81.6875 C-33 83 -33 83 -36.125 82.9375 C-39 82 -39 82 -41 79 C-41.32506653 77.28020356 -41.58968384 75.5485072 -41.8125 73.8125 C-43.02314817 66.70815379 -45.75758177 62.29338228 -50.75 57.1875 C-57.49340968 52.64866656 -64.89594615 50.69689793 -73 52 C-81.51923114 54.83135452 -86.41474099 59.60505967 -90.875 67.1875 C-94.43658249 79.25730732 -91.125964 92.81899103 -86 104 C-77.56173723 118.63511199 -65.17418046 128.32637146 -49 133 C-46.31691041 133.60816697 -43.7468195 133.88534147 -41 134 C-40.07316406 134.03996094 -39.14632812 134.07992187 -38.19140625 134.12109375 C-20.54245026 134.50330044 -6.06816327 128.81974149 6.75 116.6875 C19.27531755 103.60991977 22.58023701 87.39498271 22.26953125 69.82421875 C21.47139159 50.17740149 12.44395263 31.03017669 -0.94921875 16.83984375 C-1.70658325 16.036073 -1.70658325 16.036073 -2.47924805 15.21606445 C-3.47059808 14.17887901 -4.47552055 13.15444815 -5.49536133 12.14526367 C-7.71999618 9.85764146 -8.93434806 8.46961237 -9.3828125 5.26171875 C-9 3 -9 3 -7.875 1.1875 C-4.91843207 -0.68499302 -3.46131055 -0.65307746 0 0 Z " fill="#F9F9F9" transform="translate(163,35)"/>
</svg>
