<?xml version="1.0" encoding="UTF-8"?>
<svg version="1.1" xmlns="http://www.w3.org/2000/svg" width="1304" height="1076">
<path d="M0 0 C1.39496664 -0.00165194 2.78993282 -0.00373927 4.18489823 -0.0062201 C8.01624444 -0.01176683 11.84756822 -0.011118 15.67891716 -0.00944251 C19.84806916 -0.0087098 24.01721492 -0.01373815 28.18636423 -0.01801753 C36.45452849 -0.02558937 44.72268629 -0.02779018 52.99085365 -0.02834659 C62.89497404 -0.02926103 72.79908847 -0.03593096 82.70320629 -0.04269341 C106.64012358 -0.05874737 130.57704022 -0.06465597 154.51396192 -0.06944216 C165.8392738 -0.07177867 177.16458517 -0.07538138 188.48989666 -0.07913754 C227.26315367 -0.09197239 266.0364104 -0.10269173 304.80966949 -0.10614014 C307.24326441 -0.10636177 309.67685932 -0.10658355 312.11045424 -0.10680549 C314.54990014 -0.10702613 316.98934604 -0.10724661 319.42879194 -0.10746694 C324.32267598 -0.10790949 329.21656003 -0.1083566 334.11044407 -0.10880661 C335.32384122 -0.108916 336.53723838 -0.10902539 337.78740515 -0.1091381 C377.13042485 -0.1127686 416.47342613 -0.12868874 455.81643878 -0.15199697 C497.41938479 -0.17659898 539.02232027 -0.19031314 580.62527376 -0.19150805 C585.1931868 -0.19167951 589.76109984 -0.19189493 594.32901287 -0.19214249 C595.4537484 -0.19219826 596.57848392 -0.19225402 597.73730234 -0.19231148 C615.82874382 -0.19346159 633.92016637 -0.20448013 652.01160146 -0.21902954 C670.19962966 -0.23340359 688.38763362 -0.23662638 706.57566594 -0.22858956 C717.37649701 -0.22413765 728.17724977 -0.22797643 738.97807053 -0.24382807 C746.20025559 -0.25359589 753.42238596 -0.25238262 760.64457055 -0.24239184 C764.75467511 -0.23701284 768.86462958 -0.23624741 772.97472154 -0.24890056 C811.03343865 -0.35879127 811.03343865 -0.35879127 828.33969212 5.81892776 C829.07284641 6.07383987 829.80600071 6.32875198 830.5613718 6.5913887 C862.91732295 18.23953112 887.22677453 41.57348833 901.8847971 72.54961014 C906.49271902 82.59253354 910.01426061 93.05596401 913.64807224 103.48015213 C915.70206369 109.37132697 917.78048515 115.25385564 919.85696697 121.13713264 C920.57192776 123.16377999 921.285828 125.19079862 921.99958897 127.2178688 C926.66333867 140.45305777 931.46104649 153.63850644 936.27719212 166.81892776 C943.03528785 185.33571068 949.72183646 203.87655667 956.33969212 222.44392776 C956.75484074 223.60864609 957.16998936 224.77336441 957.59771824 225.97337723 C958.01135624 227.13388596 958.42499424 228.29439468 958.85116673 229.49007034 C959.68064216 231.81714917 960.51015046 234.14421629 961.33969212 236.47127151 C961.7472826 237.61467499 962.15487309 238.75807846 962.5748148 239.93613052 C966.80654855 251.80126195 971.06946045 263.65510603 975.33969212 275.50642776 C975.89152164 277.0380304 975.89152164 277.0380304 976.45449924 278.60057449 C978.30153627 283.72657607 980.14910077 288.85238732 981.99691868 293.97810745 C985.36356143 303.31776619 988.7254025 312.65915366 992.08767796 322.00038528 C993.96315951 327.21080112 995.83894074 332.42110906 997.71469212 337.63142776 C998.46469356 339.71476058 999.21469356 341.79809391 999.96469212 343.88142776 C1000.33594212 344.91267776 1000.70719212 345.94392776 1001.08969212 347.00642776 C1004.46469211 356.38142775 1004.46469211 356.38142775 1005.58947849 359.50589371 C1006.34014015 361.59102539 1007.0908523 363.67613889 1007.84161472 365.76123428 C1009.70690405 370.94190573 1011.57133939 376.12288124 1013.4339304 381.30452347 C1016.92352353 391.00957414 1020.42159334 400.71132435 1023.9485178 410.40288162 C1025.60165226 414.94705694 1027.25013822 419.49291246 1028.89828587 424.03889847 C1029.68015178 426.19143302 1030.46425782 428.34315548 1031.25082493 430.49397659 C1044.3330941 466.2720006 1050.82890533 503.31754173 1034.35922337 539.29939651 C1024.30382097 560.34249027 1009.98442854 577.19728758 992.21469212 592.13142776 C989.98159507 594.02266436 987.75332652 595.91950185 985.52719212 597.81892776 C984.92834202 598.32971878 984.32949192 598.8405098 983.71249485 599.36677933 C978.93735359 603.46212396 974.29870855 607.68873907 969.69516087 611.97517776 C966.23755579 615.19432731 962.7344016 618.3438702 959.16000462 621.43220901 C956.87803922 623.42549205 954.64240638 625.46635804 952.40219212 627.50642776 C949.0252823 630.56001643 945.5825208 633.47571981 942.02719212 636.31892776 C935.96148994 641.22146262 930.33304235 646.55400813 924.66000462 651.90095901 C921.53693289 654.84175356 918.35197119 657.69541954 915.10141087 660.49470901 C912.77810424 662.51016549 910.49720746 664.56991239 908.21469212 666.63142776 C902.89134518 671.43050568 897.52605873 676.17220726 892.06234837 680.81111526 C885.48151033 686.40584516 879.01703313 692.08877889 872.69516087 697.97517776 C869.24099837 701.19112216 865.74033619 704.33660731 862.17172337 707.42439651 C859.82910061 709.46776207 857.52195789 711.54823636 855.21469212 713.63142776 C849.89134518 718.43050568 844.52605873 723.17220726 839.06234837 727.81111526 C832.48151033 733.40584516 826.01703313 739.08877889 819.69516087 744.97517776 C816.23755579 748.19432731 812.7344016 751.3438702 809.16000462 754.43220901 C806.87803922 756.42549205 804.64240638 758.46635804 802.40219212 760.50642776 C799.0252823 763.56001643 795.5825208 766.47571981 792.02719212 769.31892776 C785.96148994 774.22146262 780.33304235 779.55400813 774.66000462 784.90095901 C771.53693289 787.84175356 768.35197119 790.69541954 765.10141087 793.49470901 C762.77810424 795.51016549 760.49720746 797.56991239 758.21469212 799.63142776 C752.89134518 804.43050568 747.52605873 809.17220726 742.06234837 813.81111526 C735.48151033 819.40584516 729.01703313 825.08877889 722.69516087 830.97517776 C719.23755579 834.19432731 715.7344016 837.3438702 712.16000462 840.43220901 C709.87803922 842.42549205 707.64240638 844.46635804 705.40219212 846.50642776 C702.0252823 849.56001643 698.5825208 852.47571981 695.02719212 855.31892776 C688.96148994 860.22146262 683.33304235 865.55400813 677.66000462 870.90095901 C674.53693289 873.84175356 671.35197119 876.69541954 668.10141087 879.49470901 C665.77810424 881.51016549 663.49720746 883.56991239 661.21469212 885.63142776 C655.89134518 890.43050568 650.52605873 895.17220726 645.06234837 899.81111526 C638.48151033 905.40584516 632.01703313 911.08877889 625.69516087 916.97517776 C622.24099837 920.19112216 618.74033619 923.33660731 615.17172337 926.42439651 C612.82910061 928.46776207 610.52195789 930.54823636 608.21469212 932.63142776 C602.89134518 937.43050568 597.52605873 942.17220726 592.06234837 946.81111526 C585.48151033 952.40584516 579.01703313 958.08877889 572.69516087 963.97517776 C569.23755579 967.19432731 565.7344016 970.3438702 562.16000462 973.43220901 C559.87803922 975.42549205 557.64240638 977.46635804 555.40219212 979.50642776 C552.0252823 982.56001643 548.5825208 985.47571981 545.02719212 988.31892776 C538.96148994 993.22146262 533.33304235 998.55400813 527.66000462 1003.90095901 C524.53693289 1006.84175356 521.35197119 1009.69541954 518.10141087 1012.49470901 C515.77810424 1014.51016549 513.49720746 1016.56991239 511.21469212 1018.63142776 C503.51269154 1025.57489798 495.67801733 1032.36015392 487.78109837 1039.08064651 C485.57808963 1040.95641164 483.40433683 1042.85233516 481.24203587 1044.77595901 C465.02736528 1058.9387043 446.13704744 1067.39085052 425.21469212 1072.13142776 C424.21695774 1072.35830276 423.21922337 1072.58517776 422.19125462 1072.81892776 C397.32565099 1077.51793947 369.80071404 1073.56144233 347.21469212 1062.13142776 C345.74322727 1061.41213089 345.74322727 1061.41213089 344.24203587 1060.67830276 C331.02315177 1053.93493877 320.14273608 1044.38980314 309.02377415 1034.70662308 C307.19336462 1033.11285759 305.35891291 1031.52386742 303.52328587 1029.93611526 C300.38159454 1027.21783358 297.24317909 1024.49580406 294.1058054 1021.77254105 C290.97683917 1019.05721559 287.84566056 1016.34444396 284.71469212 1013.63142776 C283.46468137 1012.54810683 282.21468138 1011.46477349 280.96469212 1010.38142776 C280.03656712 1009.57705276 280.03656712 1009.57705276 279.08969212 1008.75642776 C217.21469212 955.13142776 155.33969212 901.50642776 -133.41055202 651.25618362 C-134.65969526 650.17361451 -135.90888141 649.09109493 -137.15811062 648.00862503 C-140.29657423 645.28900499 -143.43427107 642.56850973 -146.57046413 639.84627151 C-147.82952074 638.75375678 -149.08863513 637.66130863 -150.34780788 636.56892776 C-150.96551052 636.03300003 -151.58321316 635.4970723 -152.21963406 634.94490433 C-157.08040796 630.73210618 -161.96911246 626.55264571 -166.86099148 622.37605667 C-170.27921071 619.44879853 -173.64413957 616.47333095 -176.97280788 613.44392776 C-180.30757903 610.41429908 -183.71818427 607.52534684 -187.22280788 604.69392776 C-192.00324119 600.82789521 -196.53276381 596.74782788 -201.05093288 592.58064651 C-203.64225428 590.25956292 -206.3042005 588.0973009 -209.03530788 585.94392776 C-236.0673707 563.9779597 -253.46463217 535.27844409 -257.58901882 500.32551956 C-260.20921524 471.03732903 -251.56305395 445.38438004 -241.46426296 418.35237503 C-239.33865299 412.66142176 -237.22871158 406.96467856 -235.11898327 401.26782227 C-234.63805626 399.96937003 -234.15692828 398.67099221 -233.67560101 397.37268829 C-228.96126636 384.6556514 -224.35658961 371.90052593 -219.78530788 359.13142776 C-213.48734944 341.55295992 -207.07521616 324.01952623 -200.59780788 306.50642776 C-193.00801249 285.98267119 -185.54261938 265.41800354 -178.16030788 244.81892776 C-166.34676261 211.86065194 -154.36209121 178.96711384 -142.25405788 146.11580276 C-142.02033096 145.4816136 -141.78660404 144.84742443 -141.54579449 144.19401741 C-139.05819023 137.44449006 -136.56888512 130.69559654 -134.07583523 123.94807816 C-133.2470728 121.70326017 -132.41845704 119.45838802 -131.58999538 117.21345901 C-131.18916744 116.12793243 -130.7883395 115.04240585 -130.37536526 113.92398453 C-128.33278397 108.37950575 -126.31287933 102.82794188 -124.32730007 97.26277542 C-123.9276202 96.14360229 -123.52794033 95.02442917 -123.11614895 93.87134171 C-122.36664175 91.76752462 -121.62033364 89.66256356 -120.8780508 87.55618668 C-114.01579147 68.28281268 -105.03238572 51.95608983 -90.78530788 37.13142776 C-89.98093288 36.27549026 -89.17655788 35.41955276 -88.34780788 34.53767776 C-65.18482823 10.50608638 -32.72924546 -0.045289 0 0 Z " fill="#408DFF" transform="translate(258.7853078842163,0.8685722351074219)"/>
<path d="M0 0 C1.03776383 -0.00301597 2.07552766 -0.00603194 3.14473888 -0.0091393 C4.28055463 -0.00736983 5.41637037 -0.00560036 6.58660477 -0.00377727 C7.80152113 -0.0058299 9.01643749 -0.00788253 10.26816949 -0.00999737 C13.65232029 -0.01469027 17.03641813 -0.01489128 20.42056827 -0.01321978 C24.09795798 -0.01248918 27.77534053 -0.01751046 31.4527272 -0.0217948 C38.75190062 -0.02937914 46.05106673 -0.03156808 53.35024369 -0.03212385 C62.09127956 -0.03303708 70.83230866 -0.03970348 79.57334163 -0.04647068 C100.7032844 -0.06253849 121.83322646 -0.06843514 142.96317425 -0.07321942 C152.95942819 -0.0755549 162.95568155 -0.07915753 172.95193504 -0.0829148 C207.17019209 -0.09575188 241.38844882 -0.10647024 275.60670823 -0.1099174 C277.75520509 -0.11013904 279.90370195 -0.11036082 282.05219881 -0.11058275 C284.20589553 -0.11080339 286.35959225 -0.11102388 288.51328897 -0.1112442 C292.83399318 -0.11168675 297.15469738 -0.11213387 301.47540158 -0.11258388 C302.5466869 -0.11269327 303.61797222 -0.11280266 304.72172073 -0.11291536 C339.44927962 -0.11654507 374.17681762 -0.13246106 408.90436851 -0.15577424 C445.61971688 -0.18037677 482.3350533 -0.19409047 519.05041015 -0.19528532 C523.08192776 -0.19545677 527.11344536 -0.1956722 531.14496297 -0.19591975 C532.63397385 -0.19600341 532.63397385 -0.19600341 534.15306577 -0.19608875 C550.12138433 -0.19723893 566.08968144 -0.20825827 582.05799276 -0.22280681 C598.11360043 -0.23718173 614.16918065 -0.2404032 630.22479299 -0.23236683 C639.7596106 -0.22791503 649.29433952 -0.23175316 658.82914545 -0.24760534 C665.20503037 -0.2573738 671.58085333 -0.25615928 677.95673772 -0.24616911 C681.5851909 -0.24079046 685.2134741 -0.24002338 688.84191302 -0.25267783 C720.22347838 -0.35499337 743.79816815 4.40910833 766.78716916 27.1276505 C775.04609928 35.52656249 780.45810933 45.7459623 784.63091916 56.66280675 C785.05216061 57.74070973 785.47340207 58.81861272 785.90740842 59.92917943 C790.16141154 70.90538589 794.13974562 81.98087118 798.05734128 93.0807755 C799.7781609 97.95623894 801.51034241 102.82764709 803.24146909 107.69945836 C804.13306225 110.20908208 805.02408512 112.71890848 805.91453427 115.22893834 C809.75237884 126.04524299 813.62981747 136.8469829 817.52346677 147.64330602 C818.600488 150.62992117 819.67652209 153.61689018 820.75225705 156.60396886 C824.08594867 165.86015716 827.42176855 175.11557539 830.76080197 184.369838 C833.13527922 190.95085532 835.50771007 197.53260723 837.87826318 204.11503911 C839.17128351 207.70513746 840.46527783 211.29487785 841.76168698 214.88375401 C842.98078933 218.25862316 844.19736266 221.63439363 845.41211957 225.01082921 C846.07298705 226.84566547 846.73650386 228.67954684 847.40011472 230.51339269 C855.41793584 252.82691892 858.61796573 273.27158738 848.40899533 295.50094151 C840.91671624 311.09184768 829.35399695 320.88622138 814.91216916 329.8776505 C813.81155148 330.57229405 812.71093381 331.26693761 811.57696408 331.98263097 C808.31802407 334.03794621 805.05285338 336.08307494 801.78716916 338.1276505 C799.31353597 339.68817318 796.8419985 341.25196592 794.37066525 342.81612706 C792.09051636 344.25844012 789.80814622 345.69718498 787.52545041 347.135463 C782.26938283 350.45053912 777.02817339 353.78882893 771.78716916 357.1276505 C761.03434464 363.97648786 750.25711523 370.78611423 739.4736926 377.58663487 C730.23297388 383.41509661 721.00210355 389.25849061 711.78716916 395.1276505 C701.03426855 401.97636913 690.25711585 408.78611383 679.4736926 415.58663487 C669.29434307 422.00712565 659.12992779 428.45040072 648.97930783 434.91622472 C642.31997159 439.15658377 635.64836984 443.37707873 628.97076291 447.588588 C622.89980887 451.41967419 616.84184288 455.27089546 610.78716916 459.1276505 C600.03430661 465.97642851 589.25711554 472.78611403 578.4736926 479.58663487 C569.23297388 485.41509661 560.00210355 491.25849061 550.78716916 497.1276505 C539.99153854 504.00358466 529.17252075 510.84196206 518.34478635 517.66720128 C516.69221185 518.70895656 515.03978755 519.75095014 513.38751096 520.79317784 C511.86066844 521.75627976 510.33352551 522.71890571 508.80596799 523.68087316 C501.77050322 528.1192264 494.78549122 532.62872917 487.78716916 537.1276505 C559.39716916 537.4576505 631.00716916 537.7876505 704.78716916 538.1276505 C702.82530868 542.05137146 701.3926053 543.6247704 698.16216916 546.4401505 C697.26240353 547.23034581 696.36263791 548.02054112 695.43560666 548.83468175 C694.1246301 549.96970128 694.1246301 549.96970128 692.78716916 551.1276505 C691.45352645 552.2939635 690.1201654 553.46059869 688.78716916 554.6276505 C688.14779416 555.1845255 687.50841916 555.7414005 686.84966916 556.3151505 C683.61203586 559.1603434 680.42030626 562.05618886 677.22076291 564.94405675 C675.1120577 566.83613735 672.98797115 568.70670808 670.84966916 570.5651505 C667.62157404 573.37587575 664.44978473 576.2434495 661.28716916 579.1276505 C657.50053918 582.58093203 653.68240596 585.98864101 649.81451291 589.35030675 C647.45227743 591.42124537 645.11921063 593.52277898 642.78716916 595.6276505 C639.82847165 598.29813394 636.85790444 600.95063108 633.84966916 603.5651505 C630.67495319 606.32549591 627.5717948 609.15557608 624.47466916 612.0026505 C620.91582805 615.25393744 617.30197297 618.36804508 613.53716916 621.3776505 C607.48681566 626.25612779 601.88428046 631.57029067 596.23248166 636.89718175 C593.10940993 639.83797629 589.92444824 642.69164227 586.67388791 645.49093175 C584.35058129 647.50638822 582.06968451 649.56613512 579.78716916 651.6276505 C576.17040571 654.89155898 572.52327308 658.11555999 568.84966916 661.3151505 C566.47752487 663.39976214 564.13160851 665.51193694 561.78716916 667.6276505 C558.17040571 670.89155898 554.52327308 674.11555999 550.84966916 677.3151505 C548.47752487 679.39976214 546.13160851 681.51193694 543.78716916 683.6276505 C540.16693193 686.89469385 536.51733351 690.12285826 532.83795041 693.322963 C530.52628119 695.35723191 528.25185486 697.4298736 525.97466916 699.5026505 C522.59775934 702.55623917 519.15499784 705.47194255 515.59966916 708.3151505 C509.53396698 713.21768536 503.90551939 718.55023087 498.23248166 723.89718175 C495.10940993 726.83797629 491.92444824 729.69164227 488.67388791 732.49093175 C486.35058129 734.50638822 484.06968451 736.56613512 481.78716916 738.6276505 C478.17040571 741.89155898 474.52327308 745.11555999 470.84966916 748.3151505 C468.47752487 750.39976214 466.13160851 752.51193694 463.78716916 754.6276505 C458.46382222 759.42672842 453.09853577 764.16843 447.63482541 768.807338 C441.05398737 774.40206789 434.58951017 780.08500162 428.26763791 785.9714005 C424.8079334 789.1925047 421.30395108 792.34520734 417.72466916 795.432338 C416.31192842 796.66848615 414.91856694 797.92688518 413.53716916 799.197963 C395.14437988 816.11697108 377.55641054 826.17629144 351.85748166 825.47530675 C345.38067292 825.14104304 339.7417425 823.68419006 333.78716916 821.1276505 C332.30410275 820.52630284 332.30410275 820.52630284 330.79107541 819.91280675 C322.22738785 816.07084029 315.66102385 810.37155024 308.78716916 804.1276505 C307.91060666 803.33745519 307.03404416 802.54725987 306.13091916 801.73311925 C304.49822018 800.25800672 302.8679667 798.78018246 301.24029416 797.2995255 C298.68752326 795.03942897 296.06699239 792.8916795 293.41216916 790.7526505 C288.85775993 787.07063515 284.54969351 783.19864693 280.26592892 779.21187901 C277.05453509 776.24078299 273.76107153 773.42818462 270.34966916 770.6901505 C265.57175578 766.84719571 261.09721932 762.75933721 256.62554806 758.57149816 C252.41287811 754.64858196 248.02303361 751.00854026 243.53326291 747.40499425 C240.52397864 744.90938581 237.64778261 742.28999907 234.78716916 739.6276505 C231.05389661 736.15345807 227.26345805 732.8269634 223.28716916 729.6276505 C218.7685874 725.99201 214.50733587 722.15928648 210.26544064 718.21139073 C207.05417865 715.24049422 203.76089101 712.42803973 200.34966916 709.6901505 C195.57175578 705.84719571 191.09721932 701.75933721 186.62554806 697.57149816 C182.41287811 693.64858196 178.02303361 690.00854026 173.53326291 686.40499425 C169.99038617 683.46687599 166.63275144 680.34533872 163.2651965 677.21114659 C160.05400043 674.24034984 156.76080075 671.42796729 153.34966916 668.6901505 C148.57175578 664.84719571 144.09721932 660.75933721 139.62554806 656.57149816 C135.41287811 652.64858196 131.02303361 649.00854026 126.53326291 645.40499425 C122.99038617 642.46687599 119.63275144 639.34533872 116.2651965 636.21114659 C113.05400043 633.24034984 109.76080075 630.42796729 106.34966916 627.6901505 C101.57175578 623.84719571 97.09721932 619.75933721 92.62554806 615.57149816 C88.41287811 611.64858196 84.02303361 608.00854026 79.53326291 604.40499425 C75.99038617 601.46687599 72.63275144 598.34533872 69.2651965 595.21114659 C66.05400043 592.24034984 62.76080075 589.42796729 59.34966916 586.6901505 C54.57175578 582.84719571 50.09721932 578.75933721 45.62554806 574.57149816 C41.41287811 570.64858196 37.02303361 567.00854026 32.53326291 563.40499425 C28.99810529 560.47327748 25.64417151 557.36206345 22.28936642 554.22872472 C18.02760073 550.27539918 13.56225746 546.66340737 8.96685666 543.10030675 C6.81100919 541.14922615 5.98002492 539.71936396 4.78716916 537.1276505 C7.63132477 535.40084174 10.47548101 533.674034 13.31963986 531.94723058 C15.83120941 530.42235056 18.34276359 528.89744524 20.85430783 527.37252355 C27.26006652 523.4832002 33.66597471 519.59412366 40.07232541 515.7057755 C53.71822609 507.42307788 67.35906431 499.13212784 80.99273556 490.82931066 C85.75711997 487.92805613 90.52218414 485.02791843 95.28716916 482.1276505 C97.20383897 480.96098899 99.12050564 479.79432233 101.03716916 478.6276505 C120.20383583 466.96098383 139.37050249 455.29431717 158.53716916 443.6276505 C159.95968991 442.76176305 159.95968991 442.76176305 161.41094846 441.87838292 C163.33167157 440.7092542 165.25240729 439.5401462 167.17315549 438.3710587 C171.90286108 435.49222935 176.63236213 432.61306521 181.36138791 429.73311925 C192.42985292 422.99310424 203.50386316 416.26228609 214.58203 409.538234 C225.39097258 402.97741181 236.1934451 396.40600836 246.99273556 389.82931066 C252.7193994 386.34207958 258.44698111 382.85635619 264.17437619 379.37032628 C268.90366873 376.49173097 273.63276741 373.6128184 278.36138791 370.73311925 C289.42985292 363.99310424 300.50386316 357.26228609 311.58203 350.538234 C322.39097258 343.97741181 333.1934451 337.40600836 343.99273556 330.82931066 C348.75711997 327.92805613 353.52218414 325.02791843 358.28716916 322.1276505 C360.20383897 320.96098899 362.12050564 319.79432233 364.03716916 318.6276505 C367.87050249 316.29431717 371.70383583 313.96098383 375.53716916 311.6276505 C376.48551633 311.0503922 377.43386349 310.4731339 378.41094846 309.87838292 C380.33167157 308.7092542 382.25240729 307.5401462 384.17315549 306.3710587 C388.90286108 303.49222935 393.63236213 300.61306521 398.36138791 297.73311925 C409.42985292 290.99310424 420.50386316 284.26228609 431.58203 277.538234 C443.32326434 270.41152847 455.056485 263.27170692 466.78716916 256.1276505 C470.99537457 253.56494035 475.20373553 251.00248585 479.41216916 248.4401505 C480.37872433 247.85145177 481.34527951 247.26275304 482.34112424 246.65621495 C483.24370969 246.1066715 484.14629514 245.55712804 485.07623166 244.99093175 C485.86723264 244.50922521 486.65823361 244.02751866 487.47320431 243.53121495 C489.90635578 242.05535636 492.34694487 240.59178507 494.78716916 239.1276505 C285.89716916 238.7976505 77.00716916 238.4676505 -138.21283084 238.1276505 C-134.83852671 225.75520201 -134.83852671 225.75520201 -133.30951053 221.66207433 C-132.9626218 220.72574162 -132.61573306 219.78940892 -132.25833255 218.8247025 C-131.88753574 217.83799565 -131.51673892 216.85128881 -131.13470584 215.83468175 C-130.73563022 214.75983525 -130.3365546 213.68498876 -129.92538577 212.57757115 C-129.06138714 210.250905 -128.19544757 207.92495885 -127.32776004 205.59966588 C-124.95219332 199.23052751 -122.59364474 192.85510068 -120.23626834 186.479213 C-119.99020972 185.81407123 -119.74415111 185.14892945 -119.49063617 184.46363187 C-114.00168949 169.62012727 -108.64625757 154.72960797 -103.30998355 139.8306725 C-102.1073203 136.4740497 -100.90279117 133.11809698 -99.6981824 129.76217198 C-99.34190265 128.7695808 -99.34190265 128.7695808 -98.97842532 127.75693727 C-98.26233165 125.76200368 -97.54618461 123.76708927 -96.83001834 121.77218175 C-96.4780363 120.79169394 -96.4780363 120.79169394 -96.11894351 119.79139829 C-94.71493718 115.88045324 -93.31066782 111.96960274 -91.90623599 108.05881047 C-91.21448803 106.13226583 -90.52302723 104.20561831 -89.83160526 102.27895665 C-87.20906561 94.97289166 -84.57701622 87.67035124 -81.93188602 80.37243199 C-81.13286282 78.16372673 -80.33681462 75.95394246 -79.54406863 73.74297643 C-71.12175964 50.26368146 -61.70951471 28.57191352 -40.21283084 14.1276505 C-38.9559949 13.27880284 -38.9559949 13.27880284 -37.67376834 12.41280675 C-26.8834245 5.62053797 -12.93417181 0.00746402 0 0 Z " fill="#BCD6FF" transform="translate(296.2128308415413,108.87234950065613)"/>
<path d="M0 0 C1.03776383 -0.00301597 2.07552766 -0.00603194 3.14473888 -0.0091393 C4.28055463 -0.00736983 5.41637037 -0.00560036 6.58660477 -0.00377727 C7.80152113 -0.0058299 9.01643749 -0.00788253 10.26816949 -0.00999737 C13.65232029 -0.01469027 17.03641813 -0.01489128 20.42056827 -0.01321978 C24.09795798 -0.01248918 27.77534053 -0.01751046 31.4527272 -0.0217948 C38.75190062 -0.02937914 46.05106673 -0.03156808 53.35024369 -0.03212385 C62.09127956 -0.03303708 70.83230866 -0.03970348 79.57334163 -0.04647068 C100.7032844 -0.06253849 121.83322646 -0.06843514 142.96317425 -0.07321942 C152.95942819 -0.0755549 162.95568155 -0.07915753 172.95193504 -0.0829148 C207.17019209 -0.09575188 241.38844882 -0.10647024 275.60670823 -0.1099174 C277.75520509 -0.11013904 279.90370195 -0.11036082 282.05219881 -0.11058275 C284.20589553 -0.11080339 286.35959225 -0.11102388 288.51328897 -0.1112442 C292.83399318 -0.11168675 297.15469738 -0.11213387 301.47540158 -0.11258388 C302.5466869 -0.11269327 303.61797222 -0.11280266 304.72172073 -0.11291536 C339.44927962 -0.11654507 374.17681762 -0.13246106 408.90436851 -0.15577424 C445.61971688 -0.18037677 482.3350533 -0.19409047 519.05041015 -0.19528532 C523.08192776 -0.19545677 527.11344536 -0.1956722 531.14496297 -0.19591975 C532.63397385 -0.19600341 532.63397385 -0.19600341 534.15306577 -0.19608875 C550.12138433 -0.19723893 566.08968144 -0.20825827 582.05799276 -0.22280681 C598.11360043 -0.23718173 614.16918065 -0.2404032 630.22479299 -0.23236683 C639.7596106 -0.22791503 649.29433952 -0.23175316 658.82914545 -0.24760534 C665.20503037 -0.2573738 671.58085333 -0.25615928 677.95673772 -0.24616911 C681.5851909 -0.24079046 685.2134741 -0.24002338 688.84191302 -0.25267783 C720.22347838 -0.35499337 743.79816815 4.40910833 766.78716916 27.1276505 C775.04609928 35.52656249 780.45810933 45.7459623 784.63091916 56.66280675 C785.05216061 57.74070973 785.47340207 58.81861272 785.90740842 59.92917943 C790.16162151 70.90592765 794.14011217 81.98196798 798.05789059 93.08242345 C799.77634196 97.95104902 801.50630198 102.81556624 803.23515195 107.68050694 C804.12583428 110.1873824 805.01594152 112.69446226 805.90547055 115.20174718 C809.78692174 126.14109634 813.70384794 137.06743104 817.63854855 147.9877274 C818.72215457 150.99567033 819.80430126 154.00413535 820.88629025 157.01266026 C824.84262608 168.00530683 828.82650079 178.98757363 832.83487767 189.96132588 C834.30808705 193.9965587 835.77809417 198.03295962 837.24817437 202.06933331 C838.6754819 205.9867568 840.10862646 209.90198133 841.54611176 213.81568074 C842.64448837 216.81107584 843.73465474 219.8094596 844.82623166 222.807338 C845.42947514 224.44110387 845.42947514 224.44110387 846.04490536 226.10787511 C846.58949147 227.6101566 846.58949147 227.6101566 847.14507931 229.14278722 C847.46385037 230.0134583 847.78262143 230.88412938 848.11105222 231.78118443 C848.78716916 234.1276505 848.78716916 234.1276505 848.78716916 238.1276505 C804.4383737 238.16105986 760.08957623 238.17922909 715.74076986 238.18950725 C712.98827717 238.19014733 710.23578449 238.19080674 707.4832918 238.19146657 C613.86892759 238.2135158 520.25464953 238.16709338 161.1003129 237.63216373 C157.42348751 237.62613083 153.74666211 237.62010479 150.06983672 237.61407853 C67.76027349 237.479164 -14.54928398 237.34093966 -137.21283084 237.1276505 C-136.63396265 232.8533505 -135.98427374 228.96862962 -134.50482303 224.91329503 C-134.15139331 223.93428731 -133.79796359 222.95527959 -133.43382388 221.94660497 C-133.04636493 220.89517812 -132.65890598 219.84375127 -132.25970584 218.760463 C-131.64884883 217.07824399 -131.64884883 217.07824399 -131.02565128 215.36204076 C-129.91133261 212.29804078 -128.79089308 209.23636661 -127.66759235 206.17565084 C-126.47454262 202.9203155 -125.28951184 199.66206136 -124.1032117 196.40426183 C-116.85937341 176.5277466 -109.53711386 156.67974788 -102.19378787 136.8398087 C-97.73501991 124.77946135 -93.32659332 112.70351617 -89.00319606 100.59409451 C-88.25145199 98.48891608 -87.49868161 96.38410731 -86.74562198 94.27939916 C-83.83266113 86.13861572 -83.83266113 86.13861572 -80.9408887 77.99029088 C-72.10187144 52.97558633 -63.18156196 29.56102597 -40.21283084 14.1276505 C-38.9559949 13.27880284 -38.9559949 13.27880284 -37.67376834 12.41280675 C-26.8834245 5.62053797 -12.93417181 0.00746402 0 0 Z " fill="#FEFEFF" transform="translate(296.2128308415413,108.87234950065613)"/>
<path d="M0 0 C231 0 462 0 700 0 C698.03813952 3.92372096 696.60543614 5.4971199 693.375 8.3125 C692.47523438 9.10269531 691.57546875 9.89289062 690.6484375 10.70703125 C689.77445313 11.46371094 688.90046875 12.22039063 688 13 C686.66635729 14.166313 685.33299624 15.33294819 684 16.5 C683.360625 17.056875 682.72125 17.61375 682.0625 18.1875 C678.8248667 21.0326929 675.6331371 23.92853836 672.43359375 26.81640625 C670.32488854 28.70848685 668.20080199 30.57905758 666.0625 32.4375 C662.83440488 35.24822525 659.66261557 38.115799 656.5 41 C652.71337002 44.45328153 648.8952368 47.86099051 645.02734375 51.22265625 C642.66510827 53.29359487 640.33204147 55.39512848 638 57.5 C635.04130249 60.17048344 632.07073528 62.82298058 629.0625 65.4375 C625.88778403 68.19784541 622.78462564 71.02792558 619.6875 73.875 C616.12865889 77.12628694 612.51480381 80.24039458 608.75 83.25 C602.6996465 88.12847729 597.0971113 93.44264017 591.4453125 98.76953125 C588.32224078 101.71032579 585.13727908 104.56399177 581.88671875 107.36328125 C579.56341213 109.37873772 577.28251535 111.43848462 575 113.5 C571.38323655 116.76390848 567.73610392 119.98790949 564.0625 123.1875 C561.69035571 125.27211164 559.34443935 127.38428644 557 129.5 C553.38323655 132.76390848 549.73610392 135.98790949 546.0625 139.1875 C543.69035571 141.27211164 541.34443935 143.38428644 539 145.5 C535.37976277 148.76704335 531.73016435 151.99520776 528.05078125 155.1953125 C525.73911203 157.22958141 523.4646857 159.3022231 521.1875 161.375 C517.81059018 164.42858867 514.36782868 167.34429205 510.8125 170.1875 C504.74679782 175.09003486 499.11835023 180.42258037 493.4453125 185.76953125 C490.32224078 188.71032579 487.13727908 191.56399177 483.88671875 194.36328125 C481.56341213 196.37873772 479.28251535 198.43848462 477 200.5 C473.38323655 203.76390848 469.73610392 206.98790949 466.0625 210.1875 C463.69035571 212.27211164 461.34443935 214.38428644 459 216.5 C453.67665307 221.29907792 448.31136661 226.0407795 442.84765625 230.6796875 C436.26681821 236.27441739 429.80234102 241.95735112 423.48046875 247.84375 C420.02076424 251.0648542 416.51678192 254.21755684 412.9375 257.3046875 C411.52475926 258.54083565 410.13139778 259.79923468 408.75 261.0703125 C390.35721072 277.98932058 372.76924138 288.04864094 347.0703125 287.34765625 C340.59350376 287.01339254 334.95457334 285.55653956 329 283 C328.01128906 282.59910156 327.02257812 282.19820312 326.00390625 281.78515625 C317.44021869 277.94318979 310.87385469 272.24389974 304 266 C303.1234375 265.20980469 302.246875 264.41960937 301.34375 263.60546875 C299.71105102 262.13035622 298.08079754 260.65253196 296.453125 259.171875 C293.9003541 256.91177847 291.27982323 254.764029 288.625 252.625 C284.07059077 248.94298465 279.76252435 245.07099643 275.47875977 241.08422852 C272.26736593 238.1131325 268.97390237 235.30053412 265.5625 232.5625 C260.78458662 228.71954521 256.31005016 224.63168671 251.83837891 220.44384766 C247.62570895 216.52093146 243.23586445 212.88088976 238.74609375 209.27734375 C235.73680948 206.78173531 232.86061346 204.16234857 230 201.5 C226.26672745 198.02580757 222.47628889 194.6993129 218.5 191.5 C213.98141824 187.8643595 209.72016671 184.03163598 205.47827148 180.08374023 C202.2670095 177.11284372 198.97372185 174.30038923 195.5625 171.5625 C190.78458662 167.71954521 186.31005016 163.63168671 181.83837891 159.44384766 C177.62570895 155.52093146 173.23586445 151.88088976 168.74609375 148.27734375 C165.20321701 145.33922549 161.84558228 142.21768822 158.47802734 139.08349609 C155.26683127 136.11269934 151.97363159 133.30031679 148.5625 130.5625 C143.78458662 126.71954521 139.31005016 122.63168671 134.83837891 118.44384766 C130.62570895 114.52093146 126.23586445 110.88088976 121.74609375 107.27734375 C118.20321701 104.33922549 114.84558228 101.21768822 111.47802734 98.08349609 C108.26683127 95.11269934 104.97363159 92.30031679 101.5625 89.5625 C96.78458662 85.71954521 92.31005016 81.63168671 87.83837891 77.44384766 C83.62570895 73.52093146 79.23586445 69.88088976 74.74609375 66.27734375 C71.20321701 63.33922549 67.84558228 60.21768822 64.47802734 57.08349609 C61.26683127 54.11269934 57.97363159 51.30031679 54.5625 48.5625 C49.78458662 44.71954521 45.31005016 40.63168671 40.83837891 36.44384766 C36.62570895 32.52093146 32.23586445 28.88088976 27.74609375 25.27734375 C24.21127423 22.34590736 20.85909849 19.23364343 17.50219727 16.10327148 C13.22539201 12.14088583 8.75931552 8.48560528 4.1796875 4.875 C2 3 2 3 0 0 Z " fill="#EFF4FF" transform="translate(301,647)"/>
</svg>
